# xmcd
#
# Track frame offsets: 
#        150
#        14842
#        29815
#        57954
#        85728
#        118743
#        130278
#        153726
#        173816
#        198758
#        214355
#        228875
#
# Disc length: 3602 seconds
#
# Revision: 0
# Processed by: cddbd v1.5.2PL0 Copyright (c) Steve Scherf et al.
# Submitted via: ExactAudioCopy v1.0b1
#
DISCID=ab0e100c
DTITLE=Yosif Feigelson - Vainberg: Sonatas for Solo Cello
DYEAR=1997
DGENRE=Cello
TTITLE0=Sonata, cello, no. 02   Moderato sostenuto  Op. 86 
TTITLE1=Sonata, cello, no. 02   Allegretto  Op. 86
TTITLE2=Sonata, cello, no. 02   Adagio  Op. 86
TTITLE3=Sonata, cello, no. 02   Presto  Op. 86
TTITLE4=Sonata, cello, no. 03   Allegro  Op. 106
TTITLE5=Sonata, cello, no. 03   Allegretto  Op. 106 
TTITLE6=Sonata, cello, no. 03   Lento  Op. 106
TTITLE7=Sonata, cello, no. 03   Presto  Op. 106
TTITLE8=Sonata, cello, no. 04   Andante (revised version 1986)  Op. 14
TTITLE8=0
TTITLE9=Sonata, cello, no. 04   Allegretto  Op. 140
TTITLE10=Sonata, cello, no. 04   Allegro molto  Op. 140 
TTITLE11=Sonata, cello, no. 04   Andante (original version 1985)  Op. 
TTITLE11=140 
EXTD=
EXTT0=
EXTT1=
EXTT2=
EXTT3=
EXTT4=
EXTT5=
EXTT6=
EXTT7=
EXTT8=
EXTT9=
EXTT10=
EXTT11=
PLAYORDER=
